<svg xmlns="http://www.w3.org/2000/svg" xmlns:xlink="http://www.w3.org/1999/xlink" width="34" zoomAndPan="magnify" viewBox="0 0 25.5 36.75" height="49" preserveAspectRatio="xMidYMid meet" version="1.0"><defs><clipPath id="d343d1ecf7"><path d="M 20 8 L 24.273438 8 L 24.273438 17 L 20 17 Z M 20 8 " clip-rule="nonzero"/></clipPath><clipPath id="15f5991862"><path d="M 8 0.230469 L 17 0.230469 L 17 5 L 8 5 Z M 8 0.230469 " clip-rule="nonzero"/></clipPath><clipPath id="94b544c537"><path d="M 8 32 L 17 32 L 17 36.273438 L 8 36.273438 Z M 8 32 " clip-rule="nonzero"/></clipPath></defs><path fill="#000000" d="M 22.820312 12.132812 C 21.613281 11.8125 20.667969 10.878906 20.324219 9.683594 C 20.066406 10.558594 19.363281 11.234375 18.476562 11.453125 L 13.625 11.453125 C 13.25 11.4375 12.953125 11.128906 12.953125 10.753906 L 12.953125 6.292969 C 13.175781 5.40625 13.847656 4.703125 14.726562 4.441406 C 13.527344 4.101562 12.59375 3.15625 12.273438 1.949219 C 11.953125 3.15625 11.023438 4.101562 9.824219 4.441406 C 10.699219 4.703125 11.375 5.40625 11.597656 6.292969 L 11.597656 10.753906 C 11.597656 11.128906 11.300781 11.4375 10.925781 11.453125 L 6.074219 11.453125 C 5.1875 11.234375 4.484375 10.558594 4.222656 9.683594 C 3.882812 10.878906 2.933594 11.8125 1.730469 12.132812 C 2.496094 12.335938 3.054688 12.695312 3.554688 13.308594 C 3.789062 13.589844 3.976562 13.910156 4.113281 14.253906 C 4.144531 14.335938 4.175781 14.421875 4.199219 14.503906 C 4.207031 14.527344 4.214844 14.546875 4.21875 14.570312 C 4.226562 14.59375 4.234375 14.546875 4.238281 14.53125 C 4.253906 14.488281 4.265625 14.449219 4.28125 14.40625 C 4.347656 14.234375 4.425781 14.074219 4.527344 13.917969 C 4.726562 13.605469 4.992188 13.335938 5.308594 13.136719 C 5.460938 13.039062 5.625 12.957031 5.796875 12.894531 C 5.878906 12.863281 5.964844 12.835938 6.050781 12.816406 C 6.140625 12.792969 6.230469 12.808594 6.320312 12.808594 L 10.574219 12.808594 C 10.941406 12.808594 11.261719 12.757812 11.496094 13.144531 C 11.59375 13.308594 11.597656 13.46875 11.597656 13.648438 L 11.597656 29.347656 C 11.597656 29.625 11.636719 29.898438 11.546875 30.179688 C 11.488281 30.363281 11.40625 30.539062 11.304688 30.707031 C 11.105469 31.050781 10.824219 31.339844 10.484375 31.554688 C 10.332031 31.652344 10.167969 31.734375 10 31.796875 C 9.957031 31.8125 9.914062 31.828125 9.871094 31.839844 C 9.859375 31.84375 9.8125 31.851562 9.839844 31.859375 C 9.859375 31.867188 9.878906 31.871094 9.902344 31.878906 C 9.988281 31.90625 10.070312 31.933594 10.152344 31.964844 C 10.496094 32.101562 10.816406 32.289062 11.101562 32.523438 C 11.710938 33.023438 12.070312 33.582031 12.273438 34.347656 C 12.476562 33.582031 12.835938 33.023438 13.449219 32.523438 C 13.734375 32.289062 14.054688 32.101562 14.394531 31.964844 C 14.480469 31.933594 14.5625 31.902344 14.648438 31.878906 C 14.667969 31.871094 14.691406 31.863281 14.710938 31.859375 C 14.738281 31.851562 14.6875 31.84375 14.675781 31.839844 C 14.632812 31.828125 14.589844 31.8125 14.550781 31.796875 C 14.378906 31.734375 14.214844 31.652344 14.0625 31.550781 C 13.726562 31.339844 13.445312 31.050781 13.242188 30.707031 C 13.140625 30.539062 13.0625 30.363281 13 30.179688 C 12.910156 29.898438 12.953125 29.625 12.953125 29.34375 L 12.953125 13.648438 C 12.953125 13.472656 12.953125 13.308594 13.050781 13.148438 C 13.289062 12.757812 13.605469 12.808594 13.972656 12.808594 L 18.226562 12.808594 C 18.316406 12.808594 18.40625 12.792969 18.5 12.816406 C 18.761719 12.882812 19.011719 12.992188 19.242188 13.140625 C 19.554688 13.339844 19.824219 13.605469 20.023438 13.921875 C 20.121094 14.074219 20.203125 14.238281 20.265625 14.40625 C 20.28125 14.449219 20.296875 14.492188 20.3125 14.53125 C 20.316406 14.546875 20.324219 14.59375 20.328125 14.566406 C 20.335938 14.546875 20.34375 14.527344 20.347656 14.503906 C 20.375 14.417969 20.40625 14.335938 20.4375 14.253906 C 20.570312 13.910156 20.757812 13.589844 20.992188 13.304688 C 21.496094 12.695312 22.054688 12.335938 22.820312 12.132812 Z M 22.820312 12.132812 " fill-opacity="1" fill-rule="nonzero"/><g clip-path="url(#d343d1ecf7)"><path fill="#000000" d="M 24.539062 12.132812 C 22.511719 11.78125 20.484375 10.527344 20.667969 8.148438 C 20.34375 9.011719 20.558594 9.890625 21.078125 10.601562 C 21.628906 11.355469 22.296875 11.789062 23.136719 12.132812 C 22.296875 12.476562 21.628906 12.910156 21.078125 13.660156 C 20.558594 14.375 20.34375 15.25 20.667969 16.113281 C 20.484375 13.734375 22.511719 12.480469 24.539062 12.132812 Z M 24.539062 12.132812 " fill-opacity="1" fill-rule="nonzero"/></g><path fill="#000000" d="M 1.410156 12.132812 C 2.25 11.789062 2.921875 11.355469 3.46875 10.601562 C 3.988281 9.890625 4.203125 9.011719 3.882812 8.148438 C 4.0625 10.527344 2.039062 11.78125 0.0117188 12.132812 C 2.039062 12.480469 4.0625 13.734375 3.882812 16.113281 C 4.203125 15.25 3.988281 14.375 3.46875 13.660156 C 2.921875 12.910156 2.25 12.476562 1.410156 12.132812 Z M 1.410156 12.132812 " fill-opacity="1" fill-rule="nonzero"/><g clip-path="url(#15f5991862)"><path fill="#000000" d="M 10.746094 3.6875 C 11.496094 3.140625 11.929688 2.46875 12.273438 1.632812 C 12.617188 2.46875 13.050781 3.140625 13.804688 3.6875 C 14.519531 4.207031 15.394531 4.425781 16.257812 4.101562 C 13.878906 4.285156 12.625 2.257812 12.273438 0.230469 C 11.925781 2.257812 10.671875 4.285156 8.292969 4.101562 C 9.15625 4.425781 10.03125 4.207031 10.746094 3.6875 Z M 10.746094 3.6875 " fill-opacity="1" fill-rule="nonzero"/></g><g clip-path="url(#94b544c537)"><path fill="#000000" d="M 16.179688 32.167969 C 16.128906 32.152344 16.074219 32.136719 16.019531 32.121094 C 15.796875 32.0625 15.5625 32.035156 15.332031 32.046875 C 14.832031 32.066406 14.417969 32.214844 14 32.476562 C 13.195312 32.980469 12.621094 33.820312 12.273438 34.667969 C 11.925781 33.820312 11.351562 32.980469 10.550781 32.476562 C 10.128906 32.214844 9.71875 32.066406 9.214844 32.046875 C 8.984375 32.035156 8.753906 32.0625 8.527344 32.121094 C 8.472656 32.136719 8.421875 32.152344 8.367188 32.167969 C 8.34375 32.175781 8.25 32.199219 8.296875 32.195312 C 8.328125 32.191406 8.359375 32.191406 8.390625 32.191406 C 8.515625 32.183594 8.640625 32.183594 8.765625 32.191406 C 10.898438 32.3125 11.960938 34.25 12.273438 36.066406 C 12.585938 34.25 13.648438 32.3125 15.785156 32.191406 C 15.910156 32.183594 16.03125 32.183594 16.15625 32.191406 C 16.1875 32.191406 16.21875 32.195312 16.25 32.195312 C 16.300781 32.199219 16.207031 32.175781 16.179688 32.167969 Z M 16.179688 32.167969 " fill-opacity="1" fill-rule="nonzero"/></g><path fill="#000000" d="M 18.394531 13.125 L 15.296875 13.125 C 15.550781 13.316406 15.558594 13.453125 15.542969 13.558594 C 15.527344 13.664062 15.496094 13.738281 15.308594 13.777344 C 15.121094 13.8125 14.78125 13.816406 13.65625 13.511719 C 13.972656 14.863281 13.984375 15.261719 13.871094 15.472656 C 13.753906 15.679688 13.507812 15.699219 13.265625 15.300781 L 13.265625 29.921875 C 13.347656 30.515625 13.617188 30.734375 13.859375 30.824219 C 14.101562 30.917969 14.3125 30.878906 14.492188 30.761719 C 14.667969 30.644531 14.8125 30.449219 14.710938 29.871094 C 14.542969 30.433594 14.164062 30.472656 13.910156 30.378906 C 13.660156 30.285156 13.539062 30.0625 13.542969 29.875 L 13.542969 16.472656 C 14.164062 16.492188 14.441406 16.222656 14.507812 15.789062 C 14.574219 15.355469 14.4375 14.761719 14.136719 13.988281 C 15.113281 14.457031 15.507812 14.449219 15.835938 14.335938 C 16.164062 14.222656 16.425781 14.003906 16.320312 13.398438 L 18.34375 13.398438 C 18.53125 13.394531 18.757812 13.515625 18.847656 13.769531 C 18.941406 14.019531 18.902344 14.402344 18.339844 14.566406 C 18.917969 14.667969 19.113281 14.527344 19.230469 14.347656 C 19.347656 14.171875 19.386719 13.960938 19.292969 13.71875 C 19.203125 13.472656 18.984375 13.203125 18.394531 13.125 Z M 18.394531 13.125 " fill-opacity="1" fill-rule="nonzero"/><path fill="#000000" d="M 8.714844 14.335938 C 9.042969 14.449219 9.4375 14.457031 10.410156 13.988281 C 10.109375 14.761719 9.972656 15.355469 10.039062 15.789062 C 10.109375 16.21875 10.382812 16.492188 11.007812 16.472656 L 11.007812 29.875 C 11.007812 30.0625 10.886719 30.285156 10.636719 30.378906 C 10.382812 30.472656 10.003906 30.433594 9.835938 29.871094 C 9.738281 30.449219 9.878906 30.644531 10.054688 30.761719 C 10.234375 30.878906 10.445312 30.917969 10.6875 30.824219 C 10.929688 30.734375 11.203125 30.515625 11.28125 29.921875 L 11.28125 15.300781 C 11.042969 15.699219 10.796875 15.683594 10.679688 15.472656 C 10.5625 15.261719 10.574219 14.863281 10.890625 13.511719 C 9.765625 13.816406 9.425781 13.8125 9.238281 13.777344 C 9.050781 13.738281 9.019531 13.664062 9.007812 13.558594 C 8.992188 13.453125 8.996094 13.316406 9.253906 13.125 L 6.15625 13.125 C 5.566406 13.207031 5.34375 13.476562 5.253906 13.71875 C 5.160156 13.960938 5.199219 14.171875 5.316406 14.351562 C 5.433594 14.527344 5.628906 14.671875 6.207031 14.570312 C 5.648438 14.402344 5.605469 14.023438 5.699219 13.769531 C 5.792969 13.519531 6.015625 13.398438 6.203125 13.398438 L 8.226562 13.398438 C 8.121094 14.003906 8.386719 14.226562 8.714844 14.335938 Z M 8.714844 14.335938 " fill-opacity="1" fill-rule="nonzero"/><path fill="#000000" d="M 6.15625 11.140625 L 9.253906 11.140625 C 8.996094 10.945312 8.992188 10.8125 9.007812 10.707031 C 9.023438 10.601562 9.054688 10.527344 9.242188 10.488281 C 9.425781 10.449219 9.765625 10.449219 10.890625 10.753906 C 10.578125 9.398438 10.5625 9 10.679688 8.792969 C 10.796875 8.582031 11.042969 8.5625 11.28125 8.964844 L 11.28125 6.375 C 11.203125 5.785156 10.929688 5.5625 10.691406 5.472656 C 10.449219 5.382812 10.234375 5.417969 10.058594 5.535156 C 9.878906 5.652344 9.738281 5.851562 9.839844 6.429688 C 10.003906 5.867188 10.386719 5.824219 10.636719 5.917969 C 10.890625 6.011719 11.011719 6.234375 11.007812 6.421875 L 11.007812 7.789062 C 10.382812 7.773438 10.109375 8.042969 10.042969 8.476562 C 9.972656 8.910156 10.113281 9.503906 10.414062 10.273438 C 9.4375 9.804688 9.042969 9.8125 8.714844 9.925781 C 8.386719 10.039062 8.121094 10.257812 8.226562 10.863281 L 6.203125 10.863281 C 6.015625 10.867188 5.792969 10.746094 5.699219 10.496094 C 5.605469 10.242188 5.648438 9.863281 6.207031 9.695312 C 5.632812 9.59375 5.433594 9.738281 5.316406 9.914062 C 5.199219 10.089844 5.164062 10.304688 5.253906 10.546875 C 5.34375 10.789062 5.5625 11.058594 6.15625 11.140625 Z M 6.15625 11.140625 " fill-opacity="1" fill-rule="nonzero"/><path fill="#000000" d="M 15.835938 9.925781 C 15.507812 9.8125 15.113281 9.804688 14.136719 10.273438 C 14.4375 9.5 14.578125 8.90625 14.507812 8.476562 C 14.441406 8.042969 14.167969 7.773438 13.542969 7.789062 L 13.542969 6.421875 C 13.539062 6.234375 13.660156 6.011719 13.914062 5.917969 C 14.164062 5.824219 14.546875 5.867188 14.710938 6.429688 C 14.8125 5.851562 14.671875 5.652344 14.492188 5.535156 C 14.316406 5.417969 14.101562 5.382812 13.859375 5.472656 C 13.617188 5.5625 13.347656 5.785156 13.265625 6.375 L 13.265625 8.960938 C 13.507812 8.5625 13.753906 8.582031 13.871094 8.789062 C 13.988281 9 13.972656 9.398438 13.660156 10.75 C 14.78125 10.449219 15.125 10.449219 15.308594 10.488281 C 15.496094 10.523438 15.527344 10.601562 15.542969 10.707031 C 15.558594 10.808594 15.554688 10.945312 15.296875 11.136719 L 18.394531 11.136719 C 18.984375 11.058594 19.207031 10.785156 19.296875 10.542969 C 19.386719 10.300781 19.347656 10.089844 19.234375 9.914062 C 19.117188 9.734375 18.917969 9.59375 18.339844 9.695312 C 18.902344 9.859375 18.941406 10.242188 18.851562 10.492188 C 18.757812 10.746094 18.53125 10.867188 18.34375 10.863281 L 16.324219 10.863281 C 16.425781 10.257812 16.164062 10.039062 15.835938 9.925781 Z M 15.835938 9.925781 " fill-opacity="1" fill-rule="nonzero"/></svg>