<svg xmlns="http://www.w3.org/2000/svg" xmlns:xlink="http://www.w3.org/1999/xlink" width="150" zoomAndPan="magnify" viewBox="0 0 112.5 15.75" height="21" preserveAspectRatio="xMidYMid meet" version="1.0"><defs><clipPath id="a52fc04a68"><path d="M 56 0.253906 L 74 0.253906 L 74 13 L 56 13 Z M 56 0.253906 " clip-rule="nonzero"/></clipPath><clipPath id="79b7ffb30e"><path d="M 67 10 L 70 10 L 70 14.765625 L 67 14.765625 Z M 67 10 " clip-rule="nonzero"/></clipPath><clipPath id="48f0b27e88"><path d="M 37 0.253906 L 55 0.253906 L 55 13 L 37 13 Z M 37 0.253906 " clip-rule="nonzero"/></clipPath><clipPath id="de0315bad2"><path d="M 41 10 L 45 10 L 45 14.765625 L 41 14.765625 Z M 41 10 " clip-rule="nonzero"/></clipPath></defs><path fill="#8b6400" d="M 93.921875 7.1875 L 109.132812 7.1875 L 109.132812 6.730469 L 93.921875 6.730469 Z M 93.921875 7.1875 " fill-opacity="1" fill-rule="nonzero"/><path fill="#8b6400" d="M 57.167969 7.96875 C 57.253906 8.03125 57.253906 8.152344 57.160156 8.207031 C 56.8125 8.40625 56.117188 8.847656 55.878906 9.25 C 55.832031 9.324219 55.75 9.3125 55.703125 9.25 C 55.457031 8.855469 54.75 8.425781 54.414062 8.222656 C 54.320312 8.167969 54.320312 8.050781 54.402344 7.996094 C 55 7.546875 55.394531 6.125 55.605469 5.632812 C 55.667969 5.476562 55.886719 5.476562 55.953125 5.632812 C 56.152344 6.109375 56.566406 7.519531 57.167969 7.96875 Z M 57.167969 7.96875 " fill-opacity="1" fill-rule="nonzero"/><g clip-path="url(#a52fc04a68)"><path fill="#8b6400" d="M 67.058594 6.703125 C 67.34375 6.839844 67.589844 7.007812 67.820312 7.1875 C 69.734375 7.539062 70.101562 9.332031 70.101562 9.332031 C 68.707031 9.242188 67.949219 8.222656 67.601562 7.601562 C 65.496094 5.695312 59.597656 6.742188 59.542969 6.75 L 59.542969 6.722656 C 59.53125 6.722656 59.523438 6.730469 59.515625 6.730469 C 60.089844 7.152344 61.300781 7.886719 63.132812 8.132812 C 65.441406 8.453125 66.28125 9.644531 66.546875 10.128906 C 66.867188 10.503906 67.335938 11.226562 67.070312 12.132812 C 67.070312 12.132812 66.117188 11.566406 66.191406 10.402344 C 66.035156 10.074219 65.3125 8.894531 63.078125 8.582031 C 62.699219 8.527344 62.363281 8.453125 62.03125 8.371094 C 62.289062 8.628906 62.535156 8.910156 62.683594 9.222656 C 62.984375 9.625 63.332031 10.292969 63.09375 11.101562 C 63.09375 11.101562 62.113281 10.511719 62.214844 9.324219 C 61.8125 8.617188 60.804688 7.957031 60.796875 7.957031 C 59.808594 7.539062 59.175781 7.0625 58.9375 6.851562 C 58.167969 6.988281 57.519531 7.015625 57.03125 7.015625 C 56.960938 6.867188 56.886719 6.714844 56.820312 6.558594 C 58.34375 6.601562 62.40625 6.320312 65.476562 2.308594 C 65.832031 0.394531 67.601562 0.0273438 67.601562 0.0273438 C 67.507812 1.429688 66.484375 2.199219 65.871094 2.546875 C 64.515625 4.324219 62.976562 5.394531 61.519531 6.042969 C 61.996094 6.007812 62.519531 5.980469 63.058594 5.980469 C 64.367188 5.980469 65.789062 6.125 66.894531 6.613281 C 67.214844 6.125 69.769531 2.464844 73.570312 3.167969 C 73.5625 3.179688 71.601562 7.480469 67.058594 6.703125 Z M 67.058594 6.703125 " fill-opacity="1" fill-rule="nonzero"/></g><path fill="#8b6400" d="M 90.9375 7.957031 C 90.183594 8.003906 89.535156 7.746094 89.289062 7.355469 C 89.023438 7.5 88.480469 7.710938 87.582031 7.746094 C 87.886719 7.914062 88.179688 8.195312 88.417969 8.570312 C 88.773438 9.148438 88.847656 10.304688 88.867188 10.890625 C 88.867188 11.0625 88.691406 11.171875 88.546875 11.089844 C 88.023438 10.824219 87.023438 10.246094 86.667969 9.671875 C 86.183594 8.902344 86.164062 8.039062 86.605469 7.710938 C 85.605469 7.601562 84.324219 7.289062 82.695312 6.558594 C 78.976562 4.898438 74.460938 7.214844 72.8125 8.207031 C 73.847656 8.304688 74.761719 8.78125 75.257812 9.074219 C 75.15625 9.1875 75.054688 9.304688 74.953125 9.421875 C 74.148438 8.9375 72.253906 8.058594 70.722656 9.1875 C 70.714844 9.167969 70.695312 9.148438 70.695312 9.121094 C 70.621094 8.863281 70.660156 8.683594 70.660156 8.664062 C 71.082031 8.40625 71.511719 8.261719 71.941406 8.207031 C 72.425781 7.867188 78.140625 4.003906 82.886719 6.125 C 87.429688 8.160156 89.148438 6.90625 89.195312 6.867188 C 89.289062 6.363281 89.957031 5.933594 90.816406 5.878906 C 91.496094 5.832031 92.546875 6.308594 93.070312 6.574219 C 93.226562 6.648438 93.234375 6.859375 93.097656 6.949219 C 92.59375 7.308594 91.621094 7.914062 90.9375 7.957031 Z M 90.9375 7.957031 " fill-opacity="1" fill-rule="nonzero"/><path fill="#8b6400" d="M 82.59375 5.21875 C 84.425781 2.886719 87.566406 3.738281 87.566406 3.738281 C 85.476562 6.476562 82.59375 5.21875 82.59375 5.21875 Z M 82.59375 5.21875 " fill-opacity="1" fill-rule="nonzero"/><path fill="#8b6400" d="M 80.101562 8.515625 C 77.125 10.257812 74.945312 7.976562 74.945312 7.976562 C 77.527344 6.519531 80.101562 8.515625 80.101562 8.515625 Z M 80.101562 8.515625 " fill-opacity="1" fill-rule="nonzero"/><g clip-path="url(#79b7ffb30e)"><path fill="#8b6400" d="M 68.132812 10.136719 C 68.132812 10.136719 69.351562 9.910156 69.578125 12.464844 C 69.808594 15.019531 66.59375 14.753906 67.472656 12.984375 C 68.148438 11.59375 68.132812 10.136719 68.132812 10.136719 Z M 68.132812 10.136719 " fill-opacity="1" fill-rule="nonzero"/></g><path fill="#8b6400" d="M 71.417969 10 C 72.417969 9.632812 72.371094 11.375 71.015625 11.101562 C 69.660156 10.824219 69.855469 10.191406 69.855469 10.191406 C 69.855469 10.191406 70.632812 10.285156 71.417969 10 Z M 71.417969 10 " fill-opacity="1" fill-rule="nonzero"/><path fill="#8b6400" d="M 2.367188 7.1875 L 17.578125 7.1875 L 17.578125 6.730469 L 2.367188 6.730469 Z M 2.367188 7.1875 " fill-opacity="1" fill-rule="nonzero"/><g clip-path="url(#48f0b27e88)"><path fill="#8b6400" d="M 52.582031 6.851562 C 52.34375 7.0625 51.710938 7.539062 50.722656 7.957031 C 50.714844 7.96875 49.707031 8.628906 49.304688 9.324219 C 49.402344 10.511719 48.421875 11.101562 48.421875 11.101562 C 48.183594 10.292969 48.523438 9.625 48.835938 9.222656 C 48.980469 8.921875 49.230469 8.628906 49.484375 8.371094 C 49.164062 8.453125 48.816406 8.527344 48.441406 8.582031 C 46.207031 8.894531 45.492188 10.074219 45.328125 10.402344 C 45.390625 11.558594 44.449219 12.132812 44.449219 12.132812 C 44.183594 11.226562 44.652344 10.496094 44.972656 10.128906 C 45.226562 9.644531 46.078125 8.453125 48.386719 8.132812 C 50.21875 7.875 51.425781 7.152344 52.003906 6.730469 C 51.996094 6.730469 51.984375 6.722656 51.976562 6.722656 L 51.976562 6.75 C 51.921875 6.742188 46.023438 5.695312 43.917969 7.601562 C 43.570312 8.222656 42.808594 9.242188 41.417969 9.332031 C 41.417969 9.332031 41.785156 7.539062 43.699219 7.1875 C 43.925781 7.007812 44.175781 6.839844 44.457031 6.703125 C 39.914062 7.480469 37.957031 3.179688 37.957031 3.179688 C 41.757812 2.472656 44.3125 6.136719 44.632812 6.621094 C 45.742188 6.136719 47.160156 5.988281 48.46875 5.988281 C 49.019531 5.988281 49.539062 6.015625 50.007812 6.054688 C 48.550781 5.402344 47.011719 4.332031 45.65625 2.554688 C 45.035156 2.214844 44.007812 1.445312 43.925781 0.0351562 C 43.925781 0.0351562 45.703125 0.402344 46.050781 2.316406 C 49.128906 6.320312 53.1875 6.613281 54.707031 6.566406 C 54.640625 6.722656 54.570312 6.878906 54.496094 7.023438 C 54 7.015625 53.339844 6.988281 52.582031 6.851562 Z M 52.582031 6.851562 " fill-opacity="1" fill-rule="nonzero"/></g><path fill="#8b6400" d="M 40.851562 8.683594 C 40.851562 8.699219 40.886719 8.882812 40.8125 9.140625 C 40.804688 9.15625 40.792969 9.175781 40.785156 9.203125 C 39.257812 8.078125 37.359375 8.964844 36.554688 9.441406 C 36.453125 9.3125 36.351562 9.203125 36.253906 9.09375 C 36.738281 8.800781 37.652344 8.324219 38.699219 8.222656 C 37.050781 7.234375 32.535156 4.910156 28.816406 6.574219 C 27.1875 7.300781 25.902344 7.621094 24.90625 7.730469 C 25.34375 8.058594 25.328125 8.910156 24.839844 9.6875 C 24.484375 10.265625 23.476562 10.84375 22.964844 11.109375 C 22.816406 11.191406 22.632812 11.082031 22.644531 10.90625 C 22.652344 10.320312 22.726562 9.167969 23.09375 8.589844 C 23.320312 8.214844 23.625 7.929688 23.925781 7.765625 C 23.027344 7.738281 22.488281 7.519531 22.222656 7.371094 C 21.964844 7.765625 21.324219 8.023438 20.574219 7.976562 C 19.894531 7.929688 18.914062 7.316406 18.429688 6.988281 C 18.292969 6.894531 18.300781 6.683594 18.457031 6.613281 C 18.980469 6.347656 20.023438 5.871094 20.710938 5.917969 C 21.5625 5.972656 22.242188 6.402344 22.332031 6.90625 C 22.367188 6.933594 24.097656 8.1875 28.640625 6.164062 C 33.394531 4.039062 39.101562 7.902344 39.585938 8.242188 C 40 8.277344 40.429688 8.417969 40.851562 8.683594 Z M 40.851562 8.683594 " fill-opacity="1" fill-rule="nonzero"/><path fill="#8b6400" d="M 23.945312 3.726562 C 23.945312 3.726562 27.085938 2.875 28.917969 5.210938 C 28.90625 5.21875 26.023438 6.476562 23.945312 3.726562 Z M 23.945312 3.726562 " fill-opacity="1" fill-rule="nonzero"/><path fill="#8b6400" d="M 36.554688 7.984375 C 36.554688 7.984375 34.367188 10.257812 31.398438 8.527344 C 31.398438 8.515625 33.972656 6.519531 36.554688 7.984375 Z M 36.554688 7.984375 " fill-opacity="1" fill-rule="nonzero"/><g clip-path="url(#de0315bad2)"><path fill="#8b6400" d="M 43.367188 10.136719 C 43.367188 10.136719 43.351562 11.601562 44.027344 12.984375 C 44.898438 14.753906 41.691406 15.019531 41.921875 12.464844 C 42.148438 9.898438 43.367188 10.136719 43.367188 10.136719 Z M 43.367188 10.136719 " fill-opacity="1" fill-rule="nonzero"/></g><path fill="#8b6400" d="M 40.082031 10 C 40.867188 10.285156 41.648438 10.183594 41.648438 10.183594 C 41.648438 10.183594 41.839844 10.824219 40.484375 11.089844 C 39.128906 11.375 39.082031 9.644531 40.082031 10 Z M 40.082031 10 " fill-opacity="1" fill-rule="nonzero"/></svg>