<svg xmlns="http://www.w3.org/2000/svg" xmlns:xlink="http://www.w3.org/1999/xlink" width="357" zoomAndPan="magnify" viewBox="0 0 267.75 36.750001" height="49" preserveAspectRatio="xMidYMid meet" version="1.0"><defs><clipPath id="8a5abc83ff"><path d="M 136 6 L 177 6 L 177 36.5 L 136 36.5 Z M 136 6 " clip-rule="nonzero"/></clipPath><clipPath id="f271b64559"><path d="M 90 6 L 131 6 L 131 36.5 L 90 36.5 Z M 90 6 " clip-rule="nonzero"/></clipPath></defs><path fill="#cba135" d="M 225.410156 18.855469 L 262.039062 18.855469 L 262.039062 19.957031 L 225.410156 19.957031 Z M 225.410156 18.855469 " fill-opacity="1" fill-rule="nonzero"/><path fill="#cba135" d="M 136.917969 16.980469 C 137.117188 16.824219 137.117188 16.539062 136.894531 16.40625 C 136.058594 15.921875 134.382812 14.863281 133.808594 13.890625 C 133.699219 13.714844 133.5 13.738281 133.390625 13.890625 C 132.796875 14.839844 131.097656 15.875 130.28125 16.363281 C 130.0625 16.496094 130.0625 16.78125 130.257812 16.914062 C 131.691406 17.992188 132.640625 21.410156 133.148438 22.601562 C 133.300781 22.976562 133.832031 22.976562 133.984375 22.601562 C 134.472656 21.457031 135.464844 18.058594 136.917969 16.980469 Z M 136.917969 16.980469 " fill-opacity="1" fill-rule="nonzero"/><g clip-path="url(#8a5abc83ff)"><path fill="#cba135" d="M 160.734375 20.023438 C 161.417969 19.691406 162.011719 19.292969 162.5625 18.855469 C 167.171875 18.015625 168.054688 13.695312 168.054688 13.695312 C 164.703125 13.914062 162.871094 16.363281 162.035156 17.863281 C 156.964844 22.449219 142.761719 19.933594 142.628906 19.914062 L 142.628906 19.976562 C 142.609375 19.976562 142.585938 19.957031 142.5625 19.957031 C 143.953125 18.941406 146.863281 17.179688 151.273438 16.582031 C 156.832031 15.8125 158.859375 12.945312 159.5 11.773438 C 160.269531 10.871094 161.394531 9.128906 160.757812 6.945312 C 160.757812 6.945312 158.460938 8.3125 158.640625 11.113281 C 158.265625 11.90625 156.523438 14.753906 151.140625 15.503906 C 150.238281 15.632812 149.421875 15.8125 148.628906 16.007812 C 149.246094 15.390625 149.839844 14.707031 150.195312 13.957031 C 150.921875 12.988281 151.757812 11.378906 151.1875 9.4375 C 151.1875 9.4375 148.828125 10.847656 149.070312 13.714844 C 148.097656 15.414062 145.671875 17 145.652344 17 C 143.269531 18.015625 141.746094 19.164062 141.175781 19.667969 C 139.320312 19.339844 137.757812 19.273438 136.585938 19.273438 C 136.410156 19.625 136.234375 20 136.082031 20.375 C 139.742188 20.265625 149.53125 20.949219 156.917969 30.605469 C 157.777344 35.214844 162.035156 36.097656 162.035156 36.097656 C 161.8125 32.722656 159.34375 30.871094 157.867188 30.035156 C 154.605469 25.757812 150.898438 23.175781 147.394531 21.609375 C 148.539062 21.699219 149.796875 21.765625 151.097656 21.765625 C 154.25 21.765625 157.667969 21.410156 160.335938 20.242188 C 161.109375 21.410156 167.261719 30.230469 176.414062 28.535156 C 176.390625 28.511719 171.671875 18.148438 160.734375 20.023438 Z M 160.734375 20.023438 " fill-opacity="1" fill-rule="nonzero"/></g><path fill="#cba135" d="M 218.222656 17 C 216.414062 16.890625 214.847656 17.507812 214.253906 18.457031 C 213.613281 18.105469 212.3125 17.597656 210.152344 17.507812 C 210.878906 17.113281 211.585938 16.429688 212.15625 15.523438 C 213.019531 14.136719 213.195312 11.355469 213.238281 9.945312 C 213.238281 9.527344 212.820312 9.261719 212.464844 9.460938 C 211.210938 10.097656 208.804688 11.488281 207.945312 12.878906 C 206.777344 14.730469 206.734375 16.804688 207.792969 17.597656 C 205.386719 17.863281 202.300781 18.609375 198.375 20.375 C 189.421875 24.367188 178.550781 18.789062 174.582031 16.40625 C 177.074219 16.164062 179.277344 15.015625 180.46875 14.3125 C 180.226562 14.046875 179.984375 13.761719 179.742188 13.472656 C 177.800781 14.640625 173.238281 16.757812 169.554688 14.046875 C 169.53125 14.089844 169.488281 14.136719 169.488281 14.199219 C 169.3125 14.820312 169.398438 15.257812 169.398438 15.304688 C 170.414062 15.921875 171.449219 16.273438 172.488281 16.40625 C 173.65625 17.222656 187.414062 26.527344 198.839844 21.410156 C 209.777344 16.515625 213.921875 19.539062 214.03125 19.625 C 214.253906 20.839844 215.863281 21.875 217.933594 22.007812 C 219.566406 22.117188 222.101562 20.972656 223.359375 20.332031 C 223.734375 20.15625 223.757812 19.648438 223.425781 19.425781 C 222.214844 18.566406 219.875 17.113281 218.222656 17 Z M 218.222656 17 " fill-opacity="1" fill-rule="nonzero"/><path fill="#cba135" d="M 198.132812 23.59375 C 202.542969 29.21875 210.105469 27.167969 210.105469 27.167969 C 205.078125 20.574219 198.132812 23.59375 198.132812 23.59375 Z M 198.132812 23.59375 " fill-opacity="1" fill-rule="nonzero"/><path fill="#cba135" d="M 192.136719 15.65625 C 184.96875 11.464844 179.71875 16.957031 179.71875 16.957031 C 185.9375 20.464844 192.136719 15.65625 192.136719 15.65625 Z M 192.136719 15.65625 " fill-opacity="1" fill-rule="nonzero"/><path fill="#cba135" d="M 163.3125 11.753906 C 163.3125 11.753906 166.246094 12.304688 166.796875 6.152344 C 167.347656 0 159.609375 0.640625 161.726562 4.894531 C 163.359375 8.246094 163.3125 11.753906 163.3125 11.753906 Z M 163.3125 11.753906 " fill-opacity="1" fill-rule="nonzero"/><path fill="#cba135" d="M 171.230469 12.085938 C 173.632812 12.964844 173.523438 8.777344 170.261719 9.4375 C 166.996094 10.097656 167.460938 11.621094 167.460938 11.621094 C 167.460938 11.621094 169.332031 11.402344 171.230469 12.085938 Z M 171.230469 12.085938 " fill-opacity="1" fill-rule="nonzero"/><path fill="#cba135" d="M 4.964844 18.855469 L 41.589844 18.855469 L 41.589844 19.957031 L 4.964844 19.957031 Z M 4.964844 18.855469 " fill-opacity="1" fill-rule="nonzero"/><g clip-path="url(#f271b64559)"><path fill="#cba135" d="M 125.871094 19.667969 C 125.296875 19.164062 123.777344 18.015625 121.394531 17 C 121.371094 16.980469 118.945312 15.390625 117.976562 13.714844 C 118.21875 10.847656 115.859375 9.4375 115.859375 9.4375 C 115.285156 11.378906 116.101562 12.988281 116.851562 13.957031 C 117.203125 14.6875 117.800781 15.390625 118.417969 16.007812 C 117.644531 15.8125 116.808594 15.632812 115.902344 15.503906 C 110.523438 14.753906 108.804688 11.90625 108.40625 11.113281 C 108.5625 8.335938 106.289062 6.945312 106.289062 6.945312 C 105.648438 9.128906 106.773438 10.894531 107.546875 11.773438 C 108.164062 12.945312 110.214844 15.8125 115.769531 16.582031 C 120.179688 17.199219 123.09375 18.941406 124.480469 19.957031 C 124.460938 19.957031 124.4375 19.976562 124.414062 19.976562 L 124.414062 19.914062 C 124.28125 19.933594 110.082031 22.449219 105.011719 17.863281 C 104.171875 16.363281 102.34375 13.914062 98.992188 13.695312 C 98.992188 13.695312 99.871094 18.015625 104.480469 18.855469 C 105.03125 19.292969 105.628906 19.691406 106.3125 20.023438 C 95.375 18.148438 90.65625 28.511719 90.65625 28.511719 C 99.804688 30.210938 105.957031 21.390625 106.730469 20.222656 C 109.398438 21.390625 112.816406 21.742188 115.96875 21.742188 C 117.292969 21.742188 118.550781 21.675781 119.675781 21.589844 C 116.167969 23.152344 112.464844 25.734375 109.199219 30.011719 C 107.699219 30.828125 105.230469 32.679688 105.03125 36.074219 C 105.03125 36.074219 109.308594 35.195312 110.148438 30.585938 C 117.558594 20.949219 127.328125 20.242188 130.988281 20.351562 C 130.832031 19.976562 130.65625 19.605469 130.480469 19.25 C 129.289062 19.273438 127.699219 19.339844 125.871094 19.667969 Z M 125.871094 19.667969 " fill-opacity="1" fill-rule="nonzero"/></g><path fill="#cba135" d="M 97.625 15.257812 C 97.625 15.214844 97.710938 14.773438 97.535156 14.15625 C 97.511719 14.113281 97.492188 14.070312 97.46875 14.003906 C 93.785156 16.714844 89.222656 14.574219 87.28125 13.429688 C 87.039062 13.738281 86.796875 14.003906 86.554688 14.265625 C 87.722656 14.972656 89.925781 16.121094 92.441406 16.363281 C 88.472656 18.742188 77.601562 24.34375 68.648438 20.332031 C 64.722656 18.589844 61.636719 17.816406 59.230469 17.554688 C 60.289062 16.757812 60.246094 14.707031 59.078125 12.832031 C 58.21875 11.445312 55.792969 10.054688 54.558594 9.414062 C 54.203125 9.21875 53.761719 9.480469 53.785156 9.902344 C 53.808594 11.3125 53.984375 14.089844 54.867188 15.480469 C 55.417969 16.382812 56.144531 17.066406 56.871094 17.464844 C 54.710938 17.53125 53.410156 18.058594 52.769531 18.414062 C 52.152344 17.464844 50.609375 16.847656 48.800781 16.957031 C 47.167969 17.066406 44.808594 18.546875 43.640625 19.339844 C 43.3125 19.558594 43.332031 20.066406 43.707031 20.242188 C 44.964844 20.882812 47.476562 22.027344 49.132812 21.917969 C 51.183594 21.785156 52.816406 20.75 53.035156 19.539062 C 53.125 19.472656 57.292969 16.449219 68.230469 21.324219 C 79.671875 26.441406 93.410156 17.132812 94.578125 16.316406 C 95.574219 16.230469 96.609375 15.898438 97.625 15.257812 Z M 97.625 15.257812 " fill-opacity="1" fill-rule="nonzero"/><path fill="#cba135" d="M 56.917969 27.1875 C 56.917969 27.1875 64.480469 29.238281 68.890625 23.617188 C 68.867188 23.59375 61.921875 20.574219 56.917969 27.1875 Z M 56.917969 27.1875 " fill-opacity="1" fill-rule="nonzero"/><path fill="#cba135" d="M 87.28125 16.933594 C 87.28125 16.933594 82.011719 11.464844 74.867188 15.632812 C 74.867188 15.65625 81.0625 20.464844 87.28125 16.933594 Z M 87.28125 16.933594 " fill-opacity="1" fill-rule="nonzero"/><path fill="#cba135" d="M 103.6875 11.753906 C 103.6875 11.753906 103.644531 8.226562 105.273438 4.894531 C 107.371094 0.640625 99.652344 0 100.203125 6.152344 C 100.753906 12.328125 103.6875 11.753906 103.6875 11.753906 Z M 103.6875 11.753906 " fill-opacity="1" fill-rule="nonzero"/><path fill="#cba135" d="M 95.769531 12.085938 C 97.667969 11.402344 99.542969 11.644531 99.542969 11.644531 C 99.542969 11.644531 100.003906 10.097656 96.742188 9.460938 C 93.476562 8.777344 93.367188 12.945312 95.769531 12.085938 Z M 95.769531 12.085938 " fill-opacity="1" fill-rule="nonzero"/></svg>